<mxfile host="65bd71144e">
    <diagram id="T9sOQQW7gIrUQaYGDAgH" name="第 1 页">
        <mxGraphModel dx="1584" dy="912" grid="1" gridSize="10" guides="1" tooltips="1" connect="1" arrows="1" fold="1" page="1" pageScale="1" pageWidth="827" pageHeight="1169" math="0" shadow="0">
            <root>
                <mxCell id="0"/>
                <mxCell id="1" parent="0"/>
                <mxCell id="2" value="" style="shape=image;verticalLabelPosition=bottom;labelBackgroundColor=default;verticalAlign=top;aspect=fixed;imageAspect=0;image=data:image/png,iVBORw0KGgoAAAANSUhEUgAAAlgAAAGtCAYAAADK0QrrAAAAAXNSR0IArs4c6QAAAARnQU1BAACxjwv8YQUAAAAJcEhZcwAADsMAAA7DAcdvqGQAAEtgSURBVHhe7d3f7x3Fned//oTxaHejXSLCWFnEZlj8zQybrEJkEM7FYggYfYTtzAVicIIFGOMbCyGDYiMixzixUIQl2wLZkgUWssyAL+Kgz4UlIwWtFSlCQmHFoghtblcakbnYy/p2V1X3qR/v6q7uU+fH53OeFw/B6arTXd2nT9fLVf05fcudd92j/sfOXeruf/iBqv8fAAAA0yFgAQAAFEbAAgAAKIyABQAAUBgBCwAAoDACFgAAQGEELAAAgMJmHLCeVve+d0Pt/u3Ejuelestk0ublb+vy2376oDrz8UvqzKWdYvmsXL52i1LX7hTLNq2Ttyp1c6s6IZWNVa/z8+pYVr48KZQDAEQzDVj3nKmCyntn1d1C2fzZ4HTmVaHMRcDKsXapCk3XHlfbhTLXIgLWiYtbqkBwq7oslBk/Uh+ee1p9uFcqW2Y/VBd+9bT6/XM/FMpq29QnN6swVCpkPbtVfU2wAoBRZhiwXlU7liqk5AYs5MgNWHOnR1y2qE+eFcoaDzysfn/uCXXhAaFsqeUEwzvVl1Uo+vriNqFsGB1US4+IAcCKmF3AeuysepiAtWktZ8DKCxc/fe4J9em53eoXQtlS27u7andGMMwJmRkIWAAw3oIClhx2wilF/bqu8/wl5z6uj9S9j03e0/Lq3FAPv/a0WW7b4Za5Ju2bTA0aie1U7n7tI6deRdqP3HZ3uk89c+0ldeL0ferOo/vMVJt2UD2zL6jrlVekKbmwzsf71FpYR6int6/LdqojzvLQpJ4zNSiUafseVyeq5UeOOss0uw2v/eY4TNYn7H9NB4vU1KAZ/fk05eUfefV/8XJ3HR3SfvWw+qmdtpPqaHq0zCnX4pAUbm8yDRisP6Tb4K+rnSqc8h40AhYAjFc4YIUhJdCGpwEBS3pfcF9XE3jcMHf3a5eCQCNvU6SDkRyITJsuqXvaZWYqdEy7+7nBYhKGwtEjE2bcsGTf54aUOtBIoSUYhWqCkRt8tp/eFwWa/BEsE5iigJXYvgl3boAS3h/VMfSN7b2BwAaWMAi1bBDzgotZ5t77pAPRy7v9KbtghMmMlPlTevHomd2e2x4bysKpQL1NMVDFSoQjAhYAjLf8I1himHICjt1OO2KVVCBgpfYpqJ/V7ixdIagJVCaARCNBOoQkRqisKJjZUaU4DMWmD1gVISiJ4THajjku/jrNqE3/vUfd9zGJISYKPJNRJW89bsDKDEkmqPlhz4SwcJSr7wb3wNTThLnHEwAg2fgBq2O0yVcgYOnlUkjyb+gvHrC6/gLPhqLJ9JlLCC9RHSdgJUaGJEUCVlQWh0W5zZZ3XDJv7u68wT0eqdKie5+EUaeAfJ9XuH67noh0f1h3MIyMDlh2erHAPVwAsMoIWJINGLDie5l8Jqj44SkawZp7wApGqIRRt/zt5I24yMHHEsOXHa1yR7USo1MuaWTKBDXnfbk3rdeG1K113o+Wo8x9XACwqjbNFKG8HVeBgLWoKcKugNUTYAx5Pakpwr6wVisVsMw2Tair1xnWi9rYIecerM77mKSAZUORF5Yywk4csJrRKud9A0JTZzAUcA8WACzWggJWIkxV9QcHrIp5rx+I4pvcm3oZISc5KmZDmrcOe5O7E9xy290vJ2A1IaQ7GIWBqHmPOGIUjXTFN7mb9+eMdvUFQLOPJ04/XtWT1mfenxXmMqbF+kewnCk8HYB2qw+DsJQTdnTAauu4fwnovq9/qrE1aASrzOgTAQsAxltYwGqDiVXfpK5DyIiANVnur88tN5qANDFpn98ejzTS5pSH25p3wKpNApPDe58NKo06sCRuhA/XlQpHJozJ9cKyCWE0SrejKkvuZ9B2TQpj5j6s7mDhhp2aH1pMeGrK6jAU3lxu398bivz7q+ppQXHa0Ia6yTZrcpAyoW0iOUU59Q3uBgELAMabXcACFqFQuCjPBK7svwIcjV9yB4BlQMDCpqPvxVpkyBLu5fKnDGfFTg2WCkU6rPIsQgAYg4CFTUmHrIX+BZw/RTj7cFWpA1HhESc9ilVPuxK0AGAQAhYAAEBhBCwAAIDCCFgAAACFEbAAAAAKI2ABAAAURsACAAAojIAFAABQGAFrUZ79VP3zv/xF7XhUKJuT7/78L1UbPlU/aJe9qx79l3+tljXcsk3mgWvqi0N/0n6X9Xw/AADyEbDGSD4MeoClDFh5ZRve9y+pPxKsAAAzRMAag4C1oe3/8R/UFz+7pPYLZQAAlEDAGoOAtaERsAAAs7YhAtY9Z25UgaYhBZtX1Y62XKjz2Fn1sF72tLr3PafemVedddSC8tp7Z9XdttxvR8Cpl0UHrDrA+Pc9PRo9oPiXasdF976of1V7f/7LqLxeZkJRU08IR49eV3ud9STrVfoC1g9+468nbLd+/8Xr6rvB/vltXwwCFgBg1pY8YDWB55K6x112xgkzOjzdUA+/9rQtv0fd/dpHOvTseN6v4y3To1DO64oOUDlBqdgIVh06JqNYJtT4o1o/+E0wymXfNwk0TgD7zbt2mQ017WvpfWNHsOz23HXb4Bav27SrXb4Eo3Y1AhYAYNaWOmCZoNQdZORQZINZM0JlA5YbpppRr0kwC97TZVZThEJQiZnwNBkJEgJPRY8w6RGkdJ1RAUu3O16ut+es37x/zP75jjz0nPrqwGHZngfF93R7Xr37sz+pP/74eaEMAIAyljpg9Y8omVDkjl41dDhr3psVsCp2VKt3ym+eAUuc1hsasEwoC4PNmIBllvttabXb6173Yphg9cWhP6h3vy+VAwBQDgFLeK87pehPT1rzClhNuPLC05gRrNIBqz84LV/Aatig9ZNfC2UAAJSxAaYIhYDjKDdFKBDfV5lXwJLqTBGwwhvMdZ2BAUtuU6xUwCo/Rcg9WACA2VvqgNX+daAXoKrw5N7kbqf13KAU3bs1NmClgpRdX+d7+wwYwZqMPJmgVE/HDQtYcZgyr/1lrnRAstvrCU/LO4JFwAIAzN6SB6yaHY2qg5aWDjyTOsGoV1bAsmHO0zFKZYNdq3MqU5ATsComqDRhqC4zAWdowJoEI0O/X7fBCUHNlKTAH/3y19WI203AAgCspg0QsICyCFgAgFkjYGH12Ac98yxCAMCsELCwkvQoVhWyCFoAgFkgYAEAABRGwAIAACiMgAUAAFAYAQsAAKCwpQ1Y997/P9Rd/99/F8sAAACWGQELAACgMAIWAABAYQQsAACAwghY87Djpvrm+b+qrTuEMmT4obrwq6fVpy//SCjDOPaYnntafbhXKp8j/f34s/q2VDaWXqdS36h88+Abch0AmCEC1hhH96kzHx9Uz+wTyiIfqNt7LvI/fe4J9emvHlY/FcqW2t7dVQe9W/1CKivqR+rDKgj8/rkfCmUYZ4kCVuXbR+swVCpk9X/nAGDWCFhjZAesN9TWN6qO4+gHQtnEL17emKMzcwuGDzysfn/uCXWBR9psYnnflSz/9OeCYQ0AxiFgjZEZsO44+NeMC/1GHZ2Z47Td3EbKsFB2Wu/2fxLKhiBgAVgCKxSwdqojH79UBaOQH5TWLvnlR46myzzXHlfbbT3D/Is8NU2hR3+qYCULRmv0CE5XHRPS9FSPDiNSHUOPlrXlVhiSou054cZbf2wW0026zfVImdcuaUTLHIdJe/w67XqE98wk4DrB0Dvuwqhf+LnI7Qn3TwidXZ9dzfv85NDadZzCcyU6j6Vyva7JlKRUr6GnCt+4qe4QyrIRsAAsgRUJWDZcXdrZLtt++mAVjNxwdZ965ppf5859j6sT1fvckKXljGDl/mtcd3hSWDCaDswNLmaZ0znaKbQPX246s3p5OMJkO0iv44zDhVl3RjCxHfns799xO+bJPkdtssGh6zhFx602w/3Q2/vVbvVh1f72GEfbE4KL0CbT9qCd1T4P++yqbTXb6djvruM02Z79XHrOJ739l6tj4G6r65wvEY4IWACWwGoELCkohct0aNqn1ppyS49auaGrlhOwMi/yphMOwksj0QmmwoW/Hj9gZYUk/Trs+IQAUNPbDDrhmbDb7wsO0XESAoDQsYthohDdxqpdbuAIj7kJIP6xjYJS4jzwDPnsal3rlAJQsEw8b+15OFnnJBx725HW3ygwTahHwUrcywUAU1jxEaxJoDKvqzqScPovI2Dl3X8ld7ANufP3g9OkXqLD0uKRhVq4fvPadIiu8H1t3bCDnQUbBKKRE3d/bcceiY5rGMTk41KGEPAiNgBF/M9cDMeBIZ+dpo9ZIlgK4cs/TyfByReegx0BL2WKgGX+ErHAPVwAUMCKBCw7/ecFJz8ghYGrU7ERrO4OXgxf0ShBRgcsjm6EASAObmlD6k7Jjnbo6U/bkYfHKyeAGKbdzfvz3zdGRnjrGslp5Rzr4Z9H9777xyk6f7pGv1y59Vw6YE33m3FF7uMCgCmtRsBKTP95ckJTI6duzr/EezqgOGDZjtTrlDM6VyFgtSMe7fuGdNKzHPnxeSNlQrisDQlK7THVx2Q2U4NaTrhYWMDqr++ee/X/e591bnDK2r8A92AB2CRWKGD1hadmlCtjFMvev3Xi9H1yuZbzuz4ZI1htCDCd4u9f3h2EpYywYzvEto4NKuFokAldOR1ifoe+/83r6vLV6+r8sb1iebd4O/4xsRLBS+JOpXXV33nsqm735TdfFMt7ZYUL89n1HUfpc/npc7uD17mfXS04rlVbw/OnCba/qP8btc++vyfUmjYNC7H8FSGAzWJFpgjTP7HghyRpKlH4K8KaDm1OvehnGpr7sHqmO5ywo3mdme2ALd0J6vpOp5XVkTednV1X3TEKo1o1E2ACUgCwoa2tk+hs26By9YLaL5R3k8Jjc0z8jtvbv4bUpqbdPaHmzgMXbLuvqld2CeU99HHsCSBaeBy1/s8lDERSHS2xn9H5ENZpzsvkPvjnZmMSWvNDeKvADe4aAQvAEliJgJW6vyr+qYbSCv46dWFjRhfGeVGdqoPKO6fUTrF8vvR+5wSfu/aqV94ZGwwxHL/kDmBzWYmAZUav4oCVWl6U/Vf5IkOWHtlwRxLCKcMZakawTh2Qy+dpUKi0I1jjpjYxlPkLwEKhyH7neBYhgEVakSlCeepPmtabiQJ/GTWtcApt5uFq1yl1fooptnKcqays6So74rYkoXAl6O9H4REnPYpVhzaCFoDFWJl7sAAAAOaFgAUAAFAYAavD/7r9G0p962+Uug0AAPT5P7f/e7Xtrn8U+9RVQ8BK+GTrf1L/c+t/VE/8l78XywEAwMSO72xT73/7NvW//+4/iOWrhoCVUCfxXd/5r2IZAACI1aNX6rYtYtmqIWAl1AFLWg4AANLoPw0CVgInCAAAw9F/GgSsBE4QAACGo/80CFgJqRPk7tc+Urt/e6P18GtPi/VW3eQZhMZq/yL6L9WOi/+q/vlfJh591pR99+d/8Zbv/fkvg/dCdPJWpT6/VV2WytBJP4B9SR5dtWk0zy5dkuN6+dot6uuL28SyeSBgGQSshP4T5FW1Y+qA9bS6970qqJ15VSjbLMwvoycDlv3F92X51fQw8Gi/eVesm+sHv6nWcfG6+q5QNvGuenROASuvPfOlH1uV+2SFZ7eqrz+/RX15UihbsvMp2xzbTcCagSULWM13ZFEhi4BlELASCFilbMCA5YaPR6+rvVOFLBOcmhGrNAJWXsC6U33Z1XEQsHoRsFaEHuXdoj7pvfaUR8AyCFgJBKxSNnjAqkwVSGxAI2B1yw1Y9dSHurlVnRDKNAJWLwLW6uj9vswIAcsgYCVMHbAeO6sersrb+7XeO6vuTpUFdjzvrCeDvt9JXzAnDyoW73uyF/GmXL7I+uvQ3nxxUi52BF0hSi4L79HyXVD7nbrzlB+wwvuq/qJ2POqWW6UCVjOS1kgFpGc/ddrkrs+s3y1zjQl2208fjB+gXru006kXPmj9oHpmX1O2Ux1x3xc4cfo+Zz01M3olTQ0OOp+a6ZxUuT1n63PcX69cz19XLXjAebg95/u0iO9BFLCc64L3ve68Xth9d68N1swCnD6O9THZq155x2lX1IagPPXA+XD/hH3p+uyyypu2pI5T8BmbZRNh4M6+1je6ptO1w+rc+rpaX39bvSCWj0PAMghYCVMFrOcvVUHpI3XvY5Nl95ypwpMbsrQyI1juRbr9QuovvnNhCV9X4gth+mLQKhSwWuL6FicKWDaw+AFECEO6XhOy4pvaPWI46ghY3roNKfQ194+5Ye67P/80Cn4lRrBMuBLCkheuzDIvKB3dF7zPyBrBypny6Duf6nLv/LbnvBQeau3y8LsRBwzzPfS/Y2aZ24kmvmNz/B5433u73ag9GdeLeN9q5rjMZD+cMNNeT6LjJlxvhH1p1hXWc9ud/dn1lEnnRdxO4f3COWHWZY5Bu1zav9Y29cnNrnuxCFizRMBKGB+wTGiKlutRKz90lQ1YwRfM+3KaL28UcnQd933CxSkkfOm739ezTnF9A93/pPrqwGHZU2vqiPSehCakTMQjU9IoVxOqooA09QhW13qdttntiAEtUCJgSYEoXKZDWBSazIhWODqVE7BOXNzSP90x4nyKO1JzzoadpRRMvO1Ey8x6orboDjEIJiW+B5na/ZBChpZ5vbBtduvFx7Ig217/GPnXF719JwQa4f7In69vwGenpQNW2EYtDEWJ9erPylln/7U+tohpQgKWQcBKGB+wzHJp6q/mT/+VDFhdFzV7QUlwv5hmXbZMuliIX2bhApJVVpljx5LDC0/NtFxwg7sOKDp8CcKb4acOWN1Te+16hVGulFmOYLnBSYcmO90X8Ua68gJWVkeRcT7pTquq43O/Pz3nrGa/U1Hn56zHtiXeVm1YJ1mSt/8dgcBv74TbRi90poJZKWEoEcifrdXsa86xHvLZaV0BKzxO9nV07jTrDzjv67/WxwhYi0PASpg2YIlTh5H5BqxBFz77r8XwCy5fnLrW37PtOXYsOcLRKTOi1T89l1QoYPWOTM05YJmpvulDU2NeI1imA/Y7yPj7k/N9sR1qVW9iitA0x+9B29nb73i8nwOuF27o0fswrPMfJDdgudcrSc6xHvx5dAcss76m7eb4uuvODU6jA9a1O8WyWSFgGQSshPEBa0homlfA6vnydwkvauKFZ8EBq/QUoRc+7AiSMzJlQten6gdtnQ5TByx7P1ffz0Rkb6dEwJKn+UJmlGufWhPKQllhbOp7sOTvwaiApb8XfR3dgKBS4nuQyQ0hZt/D7Q65Xpi69T7W68ra17EyAlZeAMn5XAZ8dlrfMZscJ70fYQjM2Lda3v65+u7Bmg0ClkHAShgfsCr6Jve8USx98/tvL6l7hLJcWV86/QUecsEw4nWHFx7zOr3uvguVff+Y8DcDccBqpgTd0SEbunJCytQBqyLeaB+L21nvT3yTuzQqJzGjPdJnY/8yMBixitkb3zNGseIpR0nPb2Bp3edTOMJhzu96P7vOccGgDjEnOGV+D2wQG9bJ+sJj0HzOXhsHXC8mx7DreNj9yzhmSVnH3G6nZxRL/Fyq9buv8z+7Wn8o1eur2vVKdbzj42rf3/O5mjYN+Oyz/4rwfXV8TSofh4BlELASUieICUSSICTZkOWJ/oqwZkexnHqjfqYh50tnL5oe90LUXrxdwnq99dQXPOdfZ7ZO2zlHhPVF2x1wASlMClhNSPIDjg1ZHiG09AQsE4okwQiZDVkeIeCZ8DSpkwpl4Xbjes0FvyJ1GvseVyfCKUItHLGSfopBDlLhPVvSCJme7uh7RE7n+dR09FZ9/uvzOa7TFy5S53j4vqaj9kjHNOt7MGl/TviRhAHL/ay9dfZdL1q2TZ3hsOd8yqHbkxPQgs9YE94X7p/Qrr7PTizXpHY27Upd35xj5IhDX/71sf/+qz3q+JU6YK2rK8f3COXjELAMAlYCJwiQIvz8grO8f2RrGjmjWLOX6ujM8pwQMF7TqeeNrMyDCQ697bGBZmwwxEC5v+R+6G0C1owQsBI4QYAEO3oVBazU8tJ0x7HYkGVGr+KAlVpejh0FEUeSFsGOuvSOSjWjM7M8NmhlP4uwGcHid7BmgYCVwAkCdJD+irBy5KhQdxZ0yOqZKpwpeTpnlsGnnZIcO8VWkjud2dOedhptaULh5ldPDfaFqxfeMlOD61dOqkeE8mnQfxoErAROEAAAhqP/NAhYCZwgAAAMR/9pELASOEEAABiO/tMgYCWo27aobXf9o1gGAABkBCyDgJXwb9/6W3XuP/+dWAYAAGIv3XGH+n9V/ymVrRoCVsJ/+/t/UP/39n+n1Lf+RqdxAADQoeov/+22v1U7vrPY36lbFgQsAACAwghYAAAAhRGwNgH9DLeMB+p69C/9ZjxGATH7I4vzfFRJzg8HAgCWBwFrDP0r1n1P/p+f4QGr63luuY++WD7xQ2xnZAEBK//RFwCAZUDAGmNDB6xt6pObtyh17U6hrEbA6rWIgFXLfXgrAGDhCFhjbOCAdeLilp5nuBGwei0qYFXqqUJ1c6s6IZQBAJYHAWsAHWSEB9xqbsDRAWyfWrvrPvXMNafOpZ3BOneqI+46KuLDcvc9rk649YL1RAHLqe+vz4xeidNM7sNbBX6YiB90e/7YXqfcPuBVhx379P+uek55ywt44fauqld2NWX++kPh9ooQAlb7IN4g4LXLLfc9Zt/dfbG6ApydKvzypFCmHVbn6ge4Fn46PgBgGALWGH0jWLrcBJwTp+8zy2zomQSeOnzVIax5fY/afvpgvF67rnY9dpkbnLyA1YSrKMxVejvnWv8I1v43g1Bw4EIiPAShQtebvDcOGDYseds2y7ygFKynsagRLBOiwvYIxzEKTsK+VSbhdLJsoiMkawQsAFgGBKwxMgOWG4Ka0SovKIWiEGZHuKSw5GgDlhTGXPoenq7pwdqYKcI4KIijM1IwkUZ8nGVy2DBtDIPJ/ANWM7J2Qe0P6+gQGC/XbXSOrQlnbj05dLmYJgSA5UfAGiMrYGXco2UDUagNWFHgknlTlx1hrP/+q1pGwLIBoxmhasQBSwgejtQIlrseE0ASgjbOO2CZdsQjaTWzb02dgNvGcFQrEcxcBCwAWH4ErDFKBCwbrrzRpjBQDQlY8xrBasKFV54aweoOCs3UomeK0DTvgNU1gpW1/5p/vOt96Bq9qumAlfwrUADAMiBgjVEgYJn7rfx7sFJThJ3TihX3Hiyz3kQoK3EPlg5F4ajNmIBlttMXJvKDyiICVv3a7Hu0XfE4Jei69T7W6+rb1757sAAAy4CANYYNQsngkz2C5dSx6wzDkRiYqve6r72b3JvXYsjq+w0sQweVVEcfTmk1AWNkwEoGuVYiwAjMNvtDjdm//nCXFB6DZlTPa2N6dCs2OYa9xyP7rwjfV8fXpHIAwDwQsMbSAckEGc0JOFkBq+LdO6XrmxGrKBiF2+r7mQbn5yHCEGjuw+r7scomHExMAlUTZNyyeDQqa+SpCSaR8H1OAGnJQaoJTw0pRE3anxN+BFHIrBxopjvddcbHsea9z8oNh/33X+1Rx6/UAWtdXTm+RygHAMwDAWvl5I1izZ4JTXEAsmGqd2RrGvmjYvOiA1Zfe3J/yf3Q2wQsAFgwAtYqstNMCw1ZdhQoClip5QU1I1jSSNJC6NGvntEr+5n133vVjGDxO1gAsEgErFWlO+wFP9eunVbzzSz4tFOSmTefz9hkOjNvarAvXL3wlpkaXL9yUj0ilAMA5oeABQAAUBgBCwAAoDACFgAAQGEELAAAgMIIWAAAAIURsAAAAAojYAEAABRGwAIAACiMgIVNIHzm33L8kCgAYHURsBZqu/rgqcPqqz0PCmUYpe+xMzmPpQEAYEoErIUiYBVHwAIALAEC1kIRsIojYAEAlgABa6AjDz2nvnpqTR2560F140AVjqzPHtru1/3emvrMKTfvSZQFbtzv12tfa2a77vZy2nR2T7WsDnL3P+ls6zn1wffcdecw9zudP7bXhpWO+5688sqbL/rlUp2K97BnKRDZhzaLD4VOBKjJg5UF75xSO5262qG3zYOT3zrsLwcAIAMBayAdZmxAaYOPDi1OWAlfV3TAcUOW1jOCNSRg9bRJb7+u07bBbjtqUx/3hvILar9drgOME1R2Hrvqlbfvc0NWV1BqFApY2eUNAhYAYAoErIFMmAlGfrwgZIKLPKIVjhiVDFhdbZIDnnnfk+qss6yfDUrBqI8fqF5Up6QApMONE7pyws6iAhYAAFMgYA3UH0r8abqQH5ZKBqzuoFQ8YEnTfQ0bgKKpOM0NN+5o2IDARMACACw5AtZAuQErGsESbe6AJQagBPceKX1/V1NGwAIAbEAErIH6Q0lPaPJs0oBlpwi9oJQpvJeLgAUA2IgIWANlhRL7l3o5o1jm5vPU+sIwZV6H616+gNXckzVsFEtcdxim7OtBU4ou+/7e8Nfc5H7lpHpEKgcAoAMBa6DsUOL9HIIVBBzDjmI59bwRK2899Y3spv6yB6xaE7I8zvv6yuV69U3y4U305rW3nobUTh3CnDrSzzSsnVRX6oC1/r46vhaUAQDQg4AFJLzwFgELADAOAQuQNCNY/A4WAGAEAhbgOazO6anBdXXl+B6hHACAfgQsAACAwghYAAAAhRGwAAAACiNgAQAAFEbAAgAAKIyABQAAUBgBCwAAoLCVCVjfPqrUN87X/qy+LZQDAACUsnIjWDpovXFT3SGUAQAAlLB6U4Q7bqpvnv+r2rpDKAMAACiAgAUAAFAYAQsAAKAwAhYAAEBhqxew7npDbX1DqW8c/UAoAwAAmN4KBizjjoN/1T/b8M2Db4jlAAAAY61gwPpA3U6wAgAAM8Q9WAAAAIURsAT737yuLl+9rs4f2yuWAwAAdCFgCXYeu6oD1uWrF9R+oRwAAKALAUv0ojpVB6x3TqmdYjkAAEDaygUs89eD3Q98bkawTh2QywEAALqsTMDSD3k+X+sYvdp1Sp3XU4NX1Su7hHIAAIAMqzdFCAAAMGMELAAAgMIIWAAAAIURsAAAAAojYAEAABRGwAIAACiMgAUAAFAYAQsAAKAwAtY8ZD2eB2k/VBd+9bT69OUfCWUr5IGH1e/PPa0+3CuUYbi9u9Wn1fH89FcPq59K5XNU/xDyNw++IZaNNflx5e4nVwCYDQLWGEf3qTMfH1TP7BPKIh+o26uLXNfF86fPPbEUF/nBdAe1W/1CKivqR+rDqiP8/XM/FMpWiD7eT6gLDwhlGG6JApb5R1i5kJXzSDAAs0XAGiM7YL2htr5R/Qvy6AdC2cQvXt6YozNzC4Z65IZgoY/3XAItFuKf/tz9KK9s5rpTekQMwDAErDEyA1bevyI36ujMHKft5jZStsyYJl0FelrvjZvqDqEsHwELWAYrFLDuU89ce6kKRo5rj6vtQb21S36dI0fTZZ5oXd0XOTMaUXWYomC0xt57k65jQpq+N6eZ9ojqGHq0rC23wk472p4Tbrz1x2Zxf5Bucz1S5rVLGtEyx2HSHr9Oux7hPeUDbmK99vj5x8mGp7bdhv/e/naK+yeG0+7jVNJklDPYxygoZrYpPDeFEdTou+Vty2+HeDztNsJz2aw3bFdfu015zndTs1OFt/+TUJaNgAUsg5UJWDocCYFqwgawSzsny/Y9rk5U4ckNWVrOCFbuhVJfdNMdXNNZuBd7s8zpNHWH8IT68OWmM6uXhyMetiPwOiSzzO1kpE5E7LgTnVB5boc42eeoTUJwCY9TdNxqM9uP8Pgb0fFtAoNbT2pTbzvl7Y05TiXp7b+8exIy6uXhOZ/ZJr2u4Nys603eZ49Bxzn+0+d2t+8Xz2st/l7UzPadNuW0W39ufd9NV4lwRMAClsGKBCwhPIV0aNqn1oLlOpiF78sJWPp+iv6bTPUFWbzIVxKdaqrT9NfjX8TFziRcv+0M3A6sDWZhZ6C3OZtO2We3H7TL3x9Txz9OQmcbduyVmYeL4Jj7yxIdrdBOcZmn4xi06888TsXYdYfb9PZl/GcXEr9L+n3h+g3xO6FJn8vIY2m3729HWv/E1NOE/NUysBRWZ4pQh6IqLInTefeo7acPTspDYf2MgJX7Vzz6Ip+40Mqdf3xxNvX6O9/wX+Th+s3rat0BaRpF7MxmwYbASRvs/rv723Rioei4hp2ifFxKiT+/YPuJAB2/T17mEQNIsL3s41SK2X7n+rPa1B1IjOa8CKW+F6Z+6rOPwlf4j4/MY2k+t67vZmx0wLKj5tPfwwWghNW7yd1O+5nwNBmxMgErHsESFRvB6u7gxfBlL+xup5z+l7gljkzZDql9X04n1hhSd0o2OOgpFtuJhcerd/9bfqea/76RguMehVK9b2FokkJJ//FOh7LJ9me+v6FEgHTltan7e6JlbMvTVz/4bHQ7neOfeyzHHHMdsHr+8rhTkfu4AExr9QJWI7y/Kic0NXLq5lzkei7y4UW97Wi9sJQRdoKOvmY6X/d9Q0JTRodXiBdKhHBZG9KJtcdUH5OOEaEizHEy7a3/Pwi5QsBqPhf/2PrBUBIfAxvUwpAwsLOfig3H3j4H8to0g4DV1zb3OyOcK3ntHvKdanAPFrBZrG7AikJS81eGGaNYNpydOH2fXK6Zi1z3v0S7Ow59EW8v7LaTfXl3EJbyO5+2jg0qYUcejnik5Xcc+9+8ri5fva7OH9srlneLt+MfEysRvCRtsOypv/PYVd3uy2++KJbnaYLRj/R/o+0F7TZhcrf6UL/H/Tzj41DXdev4Hb45Jz6szhXvWA04TrXpPrvmWAefVSizTdLn/otq/yav7THKDZB6u825Xr83bKc9hnvr/wrfiax2Z3w3Q0VGnwhYwDJYkYC1Ux1ppwUb0giU8FMOleivCGs6oDn1hPu6zH1YPTeb2gt1ywst5gLdlOkLta4fdpr9ocgNFroTcv+F7tQzHVlAClI2tLV1Eh1bG1SuXlD7hfJuUgfVHBO/Q/T2ryG1qWl3Xzg8cMG2+6p6ZZdQnqk5nqlO1jveur1m/1JhrBW2P/g86vebwOYfg+zjVJnus4tDYUpem+z6nDpxuPG/L+l6cd24zmR78vsz2p353XTxO1jA5rG6I1hzkTOKtRimcwj/1T4LL6pTdSf9zim1UyyfLyl0yPaqV94ZGy42i+X67DY9fskd2FQIWLPW/GXPAkOWHiVxRxLCKcMZakZBTh2Qy+dpUKi0I1hjp8c2g2X67DY9e50oFYr0SBjPIgQWioA1D/riudjfpQmnM2YernadUufr0Y8pp9im50wFZUxXtaM2qxwsluazWx11ICo74mRHz+t/3BG0gIUgYAEAABRGwAIAACiMgAUAAFAYAQsAAKAwAhYAAEBhBCwAAIDCCFgAAACFEbAAAAAKI2ANdPdrH6ndv73Revi1p8V6S6d9tp6V+xBj+6OTM/nRzbFtwpK4U335+S1KtW5Vl93yWZ47CZevue25RX15Uq4HALNGwBrtVbVj6oD1tLr3vSqonXlVKJsV+4y9MQHLBiK5wxy4Xs80711u+9+s9msjPstPf9Z9v+RuAlYyxCwgYE30tA0AZoyANdoKBqzmMTLSe6fqTAlYS4eABQBTIWCNtooBywaGqxfU/qCeeTBwvDwPAWvpELAAYCoErNF6AtZjZ9XDVXl7v9Z7Z9XdqbLAjued9WQyAacOP1YyrPSFGVvurqvSdpLiNKG8zqhNyaDR0Sapo0903Cb8TSymY69NHhgtOX9sr1e/9zjpY1CH1+CzCY+XPS7eujQ/+HYdp7DME31+wwNWu/5gXek22X0Wzp3uUN/TtkNvq/X1dbX+1mG5HACmRMAarSNgPX+pCkofqXsfmyy750wVntyQpZUZwTKdk9vR2A5eDDQdYUaaAow6yZw6lSoU+EGiY3px6oAlvF9q0wLoz0b8HKyc46SPQbWs0tYN98++dtcVnxcDjpN03CPDApZpT7jOjDaJbTHvC8PqBAELwGIRsEZLBSwTmqLletTKD11FAtbgDjIdZsQRAWH9YcfdPZIwkQ4b6TaJ+yF2wPH29fakdSZtVx88dVh9dUB2437pPd3S+5wWvUfvX/gZmyDWBgzpOIXLhhwnaX2R3IBlP1/pHMlqUyp0drWvp20AMGMErNFSAcssl6b+av70X4GAleigmk4pCl4dYUbsaKUAp7fZLEutr+lUAzMIWNEUm2tguCmtP2BlHKfeMFGxxyQawXLWM+g45WwzM2CZbcjrym1TGOLFc9VDwAKwWASs0boDljh1GNmgAcsdPRHLm9DgtysdNkoELOkYLF53wMo8Tllhx47yePz1DjpOBQNW1whWdpu8z7ze1ynbBgAzRsAarXuKMC80LdcUoRgG9Hri9Td194sdpBPAnOWzClh5YSDHvKcIM49Txv7poJLcjjXkOGXVzQ1Y9WsbAMM2DmiTPi71OVK/RzpXPAQsAItFwBqtY6RK3+SeN4qlb37/7SV1j1CWRxodsJ2Z2An1hZkwuNTrTgU4UxavK96G7hzrukMDVhim7Gu/TdIxWA5mhCYVIDKPU0YIyRsJGnCc7HEOw59vSMCavPbPgQFt6jofIz1ta25yv3JSPSKVA8CUCFgDmUAkCUKSDVme6K8Ia3YUy6k35mca2o7ZCjtG0wH7dQy/4/bq6Y7QhLW4Q7MhTiyrOEFIq0JEOMoyqk26I5ba1HTUvv6OePY6P5uM45QTsFL7Xxt9nNwQXfOCUW1gwKq163QDVW6bbL2oHZKetq2dVFfqgLX+vjq+JpQDwJQIWMAmoEOcEDxMuMsYHRpl3tNwJmB1j6o1+tv2wlsELACzQ8ACNrzUyM6QEZ8x5huwUiFSljmCxe9gAZgRAhawKUymbD3SfW3FmBCjWreqy2K9aTj7lRGuLl9z2yMFrMPqnJ4aXFdXju8JygCgHAKW9b9u/4ZS3/obpW4DAACr7P/c/u/Vtrv+UcwLuQhYlU+2/if1P7f+R/XEf/l7sRwAAKyGHd/Zpt7/9m3qf//dfxDLcxGwKnVa3fWd/yqWAQCA1VKPXqnbtohluQhYlTpgScsBAMBqmjYbELAqBCwAAOAiYBVAwAIAAC4CVgEELAAA4CJgFUDAAgAALgJWAUMO4t2vfeQ9NzDngc6rKHzOYN7jTTarX6odF/9V/fO/TDz6rCn77s//4i3f+/NfBu+F6OStM/ph081v2C/ib0bhsy/7nvOJfpNjugzPf73z2a3q6wLXBwJWAeMO4qtqx9QByz7o+cyrQtlmYX6JOxmwpAcCL1AYeLTfvCvWzfWD31TruHhdfVcom3hXPTqngJXXnvlau/SSOnPtcbVdKIvoi2fiMThLdj5lm2O7CViOrAepo9+SBayKearDdCGLgFUAAWuWNmDAcsPHo9fV3qlClglOzYhVGgErL2CZx/N8fXGbUFYhYPUiYDkIWJvYNvXJzSpkXbtTKMtDwCqAgDVLGzxgVaYKJDagEbC65QYs/a/Sm1vVCaFMI2D1ImA5CFibW9dodwYCVgEzCViPnVUPV+Xt/VrvnVV3p8oCO5531pNB3++kL5j+A3+jUGMv4k25fJH116G5DwwWO4KuECWXhfdo+S6o/U7decoPWOF9VX9ROx51y61SAasZSWukAtKznzptctdn1u+WuUYFu6P71JmPq2DkOHI0rHefeuaaW+egemZfU7ZTHXHeGzpx+j5nPTUzeiVdLAedT7pT7Si352x9jvvrlev566oFHXa4Pef7tIjvQRSwnOuC973uvF7YfRceJj6TAJcMoFI74s8lGVyTActOeQX7J+5b1nW1jLLX+kpwbkrXcL3PTh3/WGbcz5Y6xraN3jZ72232u/+7OdH3j7JHjr+ffPg7AauA4gHr+UtVUPpI3fvYZNk9Z6rw5IYsrcwIlnuitSd/eFILJ3l8sZAvKh7xQmdO+iEBqyWub3GigGUDix9AhDCk6zUhK76p3SOGo46A5a3bkEJfc/+YG+a++/NPo+BXZARr3+PqRBWCjkSBymUClBeUdChzQ5aRNYKlb2zfoj7pCqt951Nd7p3f9pz3vgdO59UuD78bto6zLvM99L9jZpl78U98x+b4PfC+93a7UXsyrhfxvtUmHeBkWQnS51SJ2lnX89skfS4tYT8N+XOKrplZ19Vyyl3rJ+tyP6udxy447xOOQdd5mjyW8XelFp0/We3O+W4Gev4ghoA1Y2UDlglN0XI9auWHrrIBKzixvS+COQHlf+W47zMnbzIM1cQvWNf7etbZ9YXNdf+T6qsDh2VPrakj0nsSmpAyEY9MSaNcTaiKAtLUI1hd63XaZrcjBrRAkYCVCEqu7acPCqHJjGiFo1M5AevExS3d04O1EedTdKFPdAjexV7aTrTMrCdqi+5IgmBS4nuQqd0P3Q7pu5l5vbBtduvFx7KgzOAQ6Tq2yVCQE7Byr6vlFLvWC59dRDpPK/oYSGEmeSyl8yI8vrnHMuO7GZpimpCAVUDZgGWWS1N/NX/6r2TA6rqo2ZMywb3wmHXZMulL5H2ZG10hqqusIq5vcbzw1EzLBTe464Ciw5cgvBl+6oDVPbXXrlcY5UopErCCqb8jwkiWDk22PHJpZ1y3J2D13n9Vyzif9MW4quNzvz8956wWX+ij76FtS7ytWlcnOVve/kvf8QHXi6zAUUz4uZjX0THTHX13u/26UigIA4Dh72/+cSql2LW+Iww1vL4gJIWZrnWG57d+LQSnhMmxDM+BDASs2EYPWOLUYWS+AWvQSelepNwvk9gRdK2/Z9tz7FhyhKNTZkSrf3ouqVDA6h2ZmnvAmnCDlDsylTXtZ81rBMuEC78TiL8/Od8X2wFX9SaCzmXIuT3H70EbEux3PN7PAdcLt1PV+9B1HZqe/qya65HedrA9aZ+6jq3bfq8sP2BlHadCil3rk/s90b+tQM869bGzx9P7HLXcYznimOuA1XNrQQIBq4CyAWtIaJpXwJIvFlnCL414seo66Xu+ECU6ltJThF74sCNIzsiUCV2fqh+0dTpMHbDs/Vx9PxORvZ3yAasRhiQ9RfjxPrXm1EnJCmNT34Mlfw/i70/GRVx/L/o6nwGdQYnvQSY3JJh9D7c75Hph6tb7WK8ra1+noY+TuR7V+xFuT7wWdh3bqQLWFNfVkYpd63POt4wQ5umr335nTBvHnXMjAtYUP0pMwCqgbMCq6Jvc80ax9M3vv72k7hHKcvV/6Sr65B54YlbidYcnuHmdXnffF8K+f44XqS5xwGqmBN3RIRu6ckLK1AGrIt5oH4vbWe9PfJO7NCon0Z1J9mdjpwy9qT/7V4IZo1gmjHXf09X7G1ha9/nkd5CTgNF9jgsyO59m/f3BKfN7YDvG3u97h/AYNJ+z18YB14vJMew6Hnb/hnTYItMRnz92qlqfsK7wc2mP19CAlT5O7rJB19UCn13Ja73ZH3/fxZvcc9vbcSwNcw6cqj47caQzq90Z381A7l8Rrr91OCojYBUw5CCaQCQJQpINWZ7orwhrdhTLqTfqZxpyvgT2BPa4FwvnYjSR/iIY9RequehNTvr2YhQR1hdtN/MLPQNSwGpCkh9wbMjyCKGlJ2CZUCQJRshsyPIIAc+Ep0mdVCgLtxvXay6uFaHTN4GoCk+u4L4qQ/opBjlIuVONtfhnGjJ/nbnzfGo6eqs+//X5HNfJ66Bi4fsmAcQhBams78Gk/UM6GVcYHNzP2ltn3/WiZdvUGQ67z6dBmnYl1uN/LvX1ybRvErCCc8DlrdOvVx8b/VmGx2DocaqM/eyKXeut8NyM2+V8bo7hx9Jotpfc/952m+1lH7+c+68OvW0C1vrb6oWgjIBVwLQHEcC85IxizV6qozPLu/4VP72mk+ofFZsX0+n1tsd2nmPDxWawfJ/dZpb7S+571PErBKyZIWABG4i+p2KxIcuMksQBK7W8HDtiII6QLIId4egdlWpGQmZ5bJbdsn12m1vWaHfNjmDxO1gzQsACNpgpblwtQ546mWXn2U59TTvFVoI7ndnTnmbUZpWDxVJ9dqtATw32XB/WTqorempwXZ07JJRXCFgFELAAAICLgFUAAQsAALgIWAWo27aobXf9o1gGAABWDwGrgH/71t+qc//578QyAACwWl664w71/6psIJXlImBV/tvf/4P6v7f/O6W+9Tc6sQIAgBVVZYF/u+1v1Y7vTPeXygQsAACAwghYAAAAhRGwAAAACiNgjXTkoefUVwcOq6/2PCiWt+5/0tRrPLWmjkj1Mulfp+396X9B+Iyn3B+8sz8oOJNHO4xt0zx8b019Vn1enz20XS7fkMIfx5ztI120+gdBOx60Oor9Jfda5zPGAGCBCFgjZQUs20nfuF8oG+HExS0Ffr0699EWlhuwbCCSw9bA9Xqmee+MbMqA5dCf5RwCVvM8sFIhK+fhrQCwBAhYM6RD2JQjVi39r/Yt6pNnhbJBpghYzbO0pPdONdJFwJq7uQWsWrkHNOt/ZJQeEQOAGSBgzdDZPdNPCRrlOqjpAlb6YbbmeWNjH+RKwJq7uQasSqF/IBCwAGwUBKyB2qlBq6sDLhawMh5s2z5QtZEMK31hxpa766q0I1PiNKG8zqhNyYe9drRJCgKJ0bL2garWuNG0xoPqxjIErOTIoDSaaJc5kscgGbDkz0If2/Dzs21rt9f5MF87VTjm/kEHAQvARkHAGi3RAYc3tQfG3I+lb2zv6FTiUSXb0YodXlfAEjrtqIPPqVOpOvDzx/ZOXouBoDFtwBLenwwmuZYkYDX7Fn6W0XGp6/kjiCbgJkappg1YwvvFEOYoEY4IWAA2CgLWaP0dcJkRLPMv/+T0YCpIDOxAa+I0n7D+MNDlTg+mO+B0m7IClq4Tb19vT1pnFvP5SoE4HMX0NH/00BW0h54TI8KM1hUyB54f/vZMHT9AV/T2pHVaU08T9nwXAGCJELBGm1fA6rn/KhEumhGjuHNNhxkxkEidtN5msyy1Pru8queZQcCKpiJdfSEkKR2w5s98lpNAk/hs7ecSis+Bpu7YgGVHIxPE7dVGByw7vVjkjzwAYD4IWKMtyQjWIgKW2+GL5U248tuVHnUpEbD6R9CGWaaAZfexOXbSZ27DlTeqJH42VoGAFY1g9cm4l7Bbmfu4AGAeCFijzStg9dyDlepEB3agNTEA2Y47XH9Td78YbuQOeFYBK72vszH3KcKa3mezj/VxDI9t7vRua6qA1fF5deAeLACrhIA12vwCVvfUiu3svM7VTuGIHWBfmAmDS73uVIAzZfG64m3oDrquOzRghSHBvvbbJB2DKTUBqe+X+ufG7OP5Y6eqz1YIRmFgEo+TIxmw4iAsfnb2888fxSoz+kTAArBRELAG0qHJHY1oPanOSnVLBCx7H1ZX59R2gpY8wuHXMfxO1qunO9TUVKMNcWJZxengtSo8edNclVFt0iFKalMTsnxi23IsXcCqNKFWCqIV/xyoj2F4nCafWcRbp1+vPpfCz05zQ3YjrNOY+gZ3g4AFYKMgYG0UhTooYP74JXcAq4eAtYHoe7EIWdhQ7NRgqVCk/6HBswgBLD8C1gajQxZ/RYWNog5EhUec9ChWPWVO0AKwxAhYAAAAhRGwAAAACiNgAQAAFEbAGoDQBwAAchCwBiBgAQCAHASsAQhYAAAgBwFrAAIWAADIQcAaYNkD1vbTB9WZj19SZy7tFMuX3vcvqT8e+oN69/tCGbp1Pdh5Rl7/yZ/UH3/8vFgGAKuOgDVA+Tbdp565Vi4QbeyA9Wv1u0OpDrvjYdBLLnxw8swsIGCZQEzIAgAJAWuAZQ9YG9fz6t2f/Ul98ZNfC2U1AlavRQSs2gPX1BeMOgJAhIA1AAFrNvb/+A9VJ31NvS6UGQSsXosKWJV6qvCLn11S+4UyAFhVBKwBirVp3+PqRD2Vl3DkaFPXBLATp+9Tdx7d59Q5qJ7ZN1lfOzVo6frNthxhvZYb8JJt26fWnHWtXfLLJ2029LauPa6237VTHXHqxW0zo1fiNJMNDZcT/DBhQ5hTfv7YXqf8HrXz2FUbdl5Up/rqOeUtL+CF27uqXtnVlPnrD4XbK0IIWDrc1dsMAl673HLfY/bd3RerK8DZqcLfPSCUaYfVufV1tb7+tnpBLAeAzYeANcD8R7BsuQ4nk4Cjw40OL2F9E2akgGXClRvMbPARwpX7fhOk3HAltNm+zw1Zbphrl+uQ6IfD/s651j+Ctf/NIBQcuJAID0Go0PUm740Dhg1L3rbNMi8oBetpLGoEy4SosD3CcYyCk7BvlUk4nSyb6AjJGgELwOohYA2wsIAVhCkTXvwRJSMdsKRQFi2TAlC4TL+Ot63X5exHHOgqQhAz9/B0TQ/WxkwRxkFBHJ2Rgok04uMsk8OGaWMYTOYfsJqRtQvxlJ0OgfFy3Ubn2Jpw5taTQ5frdaYJAcBDwBpgYQErWR4aPoLl1U2NYDkhzB2ZikT1pBDo67//qpYRsGzAaEaoGnHAEoKHIzWC5a7HBJCEoI3zDlimHfFIWs3sW1Mn4LYxHNVKBDMXAQsAfASsATZywPLv4bKi9dppQ48fknKDU269IiNYTbjwylMjWN1BoZla9EwRmuYdsLpGsLL2X/OPd70PXaNXNR2wkn8FCgCrh4A1wMYNWGY9YvBy6FAUTCNGpGlEQXbAKnEPlnj/05iAZbbTFybyg8oiAlb92ux7tF3xOCW0o1b1uvr2te8eLABYPQSsAWbRpvgmclfZgNW3nrxQZNfVUy87YPX+Bpahg0qqow+ntJqAMTJgJYNcKxFgBGab/aHG7F9/uEsKj0Ezque1MT26FZscw97jkf1XhO+r42tSOQBsPgSsAWbTpiawTBwJfqahLxiZkCZxAk7Wzy/EbWlM2pSu59bJD1hVuND3YfX9WGUTDiYmgaoJMm5ZPBqVNfLUBJNI+D4ngLTkINWEp4YUoibtzwk/gihkVvQoVLjO+DjWvPdZueHw9d77r/ao41fqgLWurhzfI5QDwOZDwBpgGduUJzWyZe+5sgEu+qtCq3uUrYS8UazZM6EpDkA2TPWObE0jf1RsXnTA6mtP7i+5H3qbgAVgpRCwBtiwAUv468B4uR2VigJWanlhdpppoSHLjgJFASu1vKBmBEsaSVoIPfrVM3plP7P+e6+aESx+BwvA6iBgDbBxR7Aq0l8RVvypP+mvCCvZ94BNSXfYC36uXTut5ptZ8GmnJDNvPp+xyXRm3tRgX7h64S0zNbh+5aR6RCgHgM2KgDXAhg5YAABgbghYAxCwAABADgLWAAQsAACQg4A1AAELAADkIGABAAAURsACAAAojIAFAABQGAELAACgMALWUCdvVerzW7QvTwrlAABg5RGwxtJBa4v65FmhDAAArDQC1mjb1Cc3b1FfX9wmlAEAgFVGwBqNgAUAAGQErNEIWAAAQEbAGo2ABQAAZASsKZy4uEWpz29Vl4UyAACwughY03p2q/q6/tmGm1vVCakcAACsHALWFC5fI1gBAIAYAWs07sECAAAyAtZoBCwAACAjYI1GwAIAADIC1mgELAAAICNgjWX/epAHPgMAgBABayj9kOdbNEavAACAhIAFAABQGAELAACgMAIWAABAYQQsAACAwghYAAAAhRGwAAAACiNgAQAAFEbAAgAAKIyAhU1gr3rlnevq8tXGVfXKLqkeAADzQcBaqO3qg6cOq6/2PCiUYZQDF7oDVl85AAAFELAWioBVHAELALAECFgLRcAqjoAFAFgCBKyBjjz0nPrqqTV15K4H1Y0DVTiyPntou1/3e2vqM6fcvCdRFrhxv1+vfa2Z7brby2nT2T3VsjrI3f+ks63n1Affc9edw9zvdP7YXhtWOu578sorb77ol0t1KqcOhOXBunedUufDeo1EgNr/pr8Nzzun1E6nrnbobbW+vq7W3zrsLwcAIAMBayAdZmxAaYOPDi1OWAlfV3TAcUOW1jOCNSRg9bRJb7+u07bBbjtqUx/3hvILar9drgOME1R2Hrvqlbfvc0NWV1BqFApY2eUNAhYAYAoErIFMmAlGfrwgZIKLPKIVjhiVDFhdbZIDnnnfk+qss6yfDUrBqI8fqF5Up6QApMONE7pyws6iAhYAAFMgYA3UH0r8abqQH5ZKBqzuoFQ8YEnTfQ0bgKKpOM0NN+5o2IDARMACACw5AtZAuQErGsESbe6AJQagBPceKX1/V1NGwAIAbEAErIH6Q0lPaPJs0oBlpwi9oJQpvJeLgAUA2IgIWANlhRL7l3o5o1jm5vPU+sIwZV6H616+gNXckzVsFEtcdxim7OtBU4ou+/7e8Nfc5H7lpHpEKgcAoAMBa6DsUOL9HIIVBBzDjmI59bwRK2899Y3spv6yB6xaE7I8zvv6yuV69U3y4U305rW3nobUTh3CnDrSzzSsnVRX6oC1/r46vhaUAQDQg4AFJLzwFgELADAOAQuQNCNY/A4WAGAEAhbgOazO6anBdXXl+B6hHACAfgQsAACAwghYAAAAhRGwAAAACiNgAQAAFEbAAgAAKIyABQAAUBgBCwAAoDACFgAAQGErE7C+fVSpb5yv/Vl9WygHAAAoZeVGsHTQeuOmukMoAwAAKGH1pgh33FTfPP9XtXWHUAYAAFAAAQsAAKAwAhYAAEBhBCwAAIDCVi9g3fWG2vqGUt84+oFQBgAAML0VDFjGHQf/qn+24ZsH3xDLAQAAxlrBgPWBup1gBQAAZoh7sAAAAAojYAn2v3ldXb56XZ0/tlcsBwAA6ELAEuw8dlUHrMtXL6j9QjkAAEAXApboRXWqDljvnFI7xXIAAIC0lQtY5q8Hux/43IxgnToglwMAAHRZmYClH/J8vtYxerXrlDqvpwavqld2CeUAAAAZVm+KEAAAYMYIWAAAAIURsAAAAAojYAEAABS2tAELAABgoyJgAQAAFEbAAgAAKIyABQAAUNhyB6zvX1J/PPQn9UXljz9+Xq4DAACwZDbGCJYNWr97QCgDAABYMhtmivD1n/xJffGTX4tlAAAAy4SABQAAUNgmCliH1bn1dbW+/rZ6QSwHAACYDwIWAABAYRsmYN35wDX1xaE/qHe/L5QBAAAskY0TsLRfq9/pn224pl4XywEAABZvwwSs/T/+A8EKAABsCJvoHiwAAIDlsAlvcn9fHV+TygEAAOZjEwWsPer4lTpgrasrx/cI5QAAAPOxuaYID71NwAIAAAu3QQKW+evB7gc+NyNY/A4WAABYrOUOWPYhz1/UOkavXnjLTA2uXzmpHhHKAQAA5mnDTBECAABsFAQsAACAwghYAAAAhRGwAAAACiNgAQAAFEbAAgAAKIyABQAAUBgBC6vrgWvqi0PX1OtSGTrtf/O6uvzOKbVTKJuPF9Wpq9fV+WN722U7j11Vl6tlDbdsJvTv9HH+AJCtVMA6u+ew+uqpNXVEKEOmfY+rEx+/pM4EjhwV6i4z+yO2v3tAKNt1Sp2vOuhTB4SypbZXvfJOFS7efFEoK2sZA1ZeWVn6EV6ELAACAhaGsQHLC1RH9+mQdeL0fX7dpdXz6CUCVi8CVuN59e7PMp6TCmDlELAwjBSwKmuXXlJnrj2utjvLlpUedfjZJbVfKNMIWL0IWI6u0VAAK2u5A9b9T6qvDjypzt61XX3wVBWODlh7HgzqBuUHnlMffK8pe1DdaJfHPntou6n3vTX1WfX6xv3N+ybvbetUjjz0nA1p/nrdOjrI1W3U7W/quG3KpNtUv69v/yvetvw6kzYH76m1x1gokyQC1vbTB9WZj/epNfe1Dlw71ZGqfjOVGI1y2dGvlhfS7lPPXDPLve0105S6rq0jhLuwTYYZvZI6w/AeHt+FIJCZTtyt4wcyE3Z0J3/gglPvqnpll1vPhhVnPQ0vINjQ15a74SYsC8wiKOo210HO27fwGNV6jpNue31MbDhs6gkhUTpOowJW17HUzPvrdvrnhLR/xus9of2R4+/r56VeOb5HLAew+WyAgGUCQzoIxSHIvC8ONJ0jWEMCVrWs1tYNtqe3U9dpt2UD0tDRM9umeFt+O02b3JBkt2dDVlw+0Rm+JJkjWCbcBOFIh6mD6pl9bp3J60mgckNRuEwIVMF63fdFgU7f2P4H9e73nWWh3hGsOgz4na3piN3w5AaGSd1w5MeEBmdddtteONAhxg9m4XqMOY9g1fvWtsFu22tTxnFywk57vG1omxx/ad1dIaqjLOtYOqEw3L/Use35gwkCFrB6NkTA6go9ckAwAcMLXZVyASsIb8F7pe10hZykrDaZ136dij52dnvu/wf129G25n19hIDVhKl4WRB6vPeaka0oAIkBzo6CXdqZGJWalLfLxNBVdaY//kP39GCtN2AJovdIoaAJGE3okDrtcJl5HYUFvT0/KPSGgIKkgOfvW0J4nMRjHQQkIRSNC1i5x9IGrOA4yqHWYpoQQGADBKzuqbV2tEgSBIdyAas7KM01YNk64v43x07Xsf9vQ2tzbOq2hkG0UzM95wkDT2p6zqHXEweg5MiTs10/fBnh9vSImhu4rNf77r+qiZ1+QHf6VYcbiAJWT9gxI0HxCNZkPc5oisBv4xIGrL7jlBGw9HqjYDMmYOUey651JxCwAAQ2R8BKhabAZg5Yfp3QZNSqbseN++vXdVvkkb5O4ghTrHjAcu7VispqXrvqES1p3YVGsGxo8Drg6D15YceEEr+j9zv2IZ39kgWsnOO0gIDVfyyHHHNLB6yeqWcAK2XDB6whwWVTBiyhjTETpG7cX//XtKFuowla4fp7lApYQ6YI7TJdNzH1V2tHreo6wuiVVuAeLHGkZlTAMh15ajvGkNC0XAEr6zjlBqzEeoYFrNzjMyJg8aO1AAIbPmA1ASNnFMuEnNT65OBST6ctd8Bq1t0dlOo2ffZUVa+ZNq2PbfW6nToM6icVC1g2EHlhSbiBXVhm3ies2xnlSrev5zewNNPBJjtiPTLTc6P2gIDV25Hr7eV1+NGUo8juX3RfU778Eaye45QRsKIw5axHPiYdxzXrWGZ+Lo7XM/+KcP2tw2I5gM1nEwSs2iQMTcjv0+HHqeeN/Ojtue+Pp9CWMWDVmpDlce5Bi0NYc8wGtqlgwKqZeiYUad7Ik715PRqxapaH65cCWkx3hn2jDU4nbvihxQSZRh0iTKc8LGBVbIcfCafEpHrRtFnNbtep54eXoM7I0a6sgFXpPU45Aavm7X+9DbMPbh1/W64gcPYey4EBK+f+q0Nvm4C1/rZ6QSoHsOksd8ACBkncvxXJGcWaAzFcTJYPGUEZzIaMmW5jJeT+kvsedfwKAQtYJQQsbBrhb3F10vfMLDhk2ZATBazU8mKaEaxgZAeDvZ4zGlqzI1j8DhawOghY2OCa6cIB4aqxBDcmm2m1YLpqinuj+rTbE6cXMYieGuw5f9ZOqit6anBdnTsklAPYtAhYAAAAhRGwAAAACiNgAQAAFEbAAgAAKIyABQAAUBgBCwAAoDACFgAAQGEELAAAgMJmErAuX7tFqc9rt6rLQjkAAMBmNtMRLB20bm5VJ4QyAACAzWq2U4TPblVff75FffKsUAYAALBJEbAAAAAKI2ABAAAURsACAAAobLYB665t6pObtyh17U6hDAAAYHOaccAyTlzcon+24euL28RyAACAzWTGAetO9SXBCgAArBjuwQIAACiMgAUAAFAYAQsAAKAwAhYAAEBhMw1Y5q8HeeAzAABYLTMJWPohz5/XGL0CAACrZ7ZThAAAACuIgAUAAFAYAQsAAKAwAhYAAEBhBCwAAIDCCFgAAACFEbAAAAAKI2ABAAAURsACAAAojIAFAABQGAELAACgMAIWAABAYQQsAACAwghYAAAAhRGwAAAACiNgAQAAFEbAAgAAKIyABQAAUBgBCwAAoDACFgAAQFH3qP8fBVoXicgHPaAAAAAASUVORK5CYII=;" parent="1" vertex="1">
                    <mxGeometry x="227" y="300" width="600" height="429" as="geometry"/>
                </mxCell>
                <mxCell id="3" value="&lt;div style=&quot;text-align: left;&quot;&gt;&lt;span style=&quot;font-size: 24px;&quot;&gt;&amp;nbsp; &amp;nbsp; 由于reactive是针对对象的操作，所以避免出现data: { value: 1，get fn() } 复合操作，若fn函数使用了value，将无法进行依赖收集，因为是data原对象。&lt;/span&gt;&lt;/div&gt;&lt;div style=&quot;text-align: left;&quot;&gt;&lt;span style=&quot;font-size: 24px;&quot;&gt;&amp;nbsp; &amp;nbsp; 1、在fn函数中，this指向原来的data对象，即this.value实际上是data.value，因为操作的是原对象，因此并不会触发依赖收集。&lt;/span&gt;&lt;/div&gt;&lt;div style=&quot;text-align: left;&quot;&gt;&lt;span style=&quot;font-size: 24px;&quot;&gt;&amp;nbsp; &amp;nbsp; 2、所以我们用上Reflect的特性，将this的原本指向data改为指向Proxy()。&lt;/span&gt;&lt;/div&gt;" style="text;strokeColor=none;align=center;fillColor=none;html=1;verticalAlign=middle;whiteSpace=wrap;rounded=0;fontSize=14;fontColor=#FF3333;labelBackgroundColor=#FFFF00;" parent="1" vertex="1">
                    <mxGeometry x="287" y="780" width="540" height="260" as="geometry"/>
                </mxCell>
            </root>
        </mxGraphModel>
    </diagram>
</mxfile>